<svg width="230" height="244" viewBox="0 0 230 244" fill="none" xmlns="http://www.w3.org/2000/svg">
<mask id="mask0_27_404" style="mask-type:luminance" maskUnits="userSpaceOnUse" x="0" y="17" width="230" height="227">
<path d="M0 17.3833H230V243.898H0V17.3833Z" fill="white"/>
</mask>
<g mask="url(#mask0_27_404)">
<mask id="mask1_27_404" style="mask-type:luminance" maskUnits="userSpaceOnUse" x="2" y="19" width="228" height="279">
<path d="M2.27319 76.3397L134.262 19.3843L229.537 240.155L97.5483 297.11L2.27319 76.3397Z" fill="white"/>
</mask>
<g mask="url(#mask1_27_404)">
<mask id="mask2_27_404" style="mask-type:luminance" maskUnits="userSpaceOnUse" x="-38" y="-133" width="410" height="431">
<path d="M-37.04 -14.77L236.534 -132.819L371.163 179.142L97.5893 297.205L-37.04 -14.77Z" fill="white"/>
</mask>
<g mask="url(#mask2_27_404)">
<path d="M162.277 71.1122C112.046 53.2524 55.3764 53.4021 2.62732 76.1625L74.6792 243.163C127.442 220.389 184.111 220.253 234.342 238.099C255.809 189.311 294.796 148.174 347.545 125.413L275.493 -41.5871C222.731 -18.8131 183.758 22.3108 162.277 71.1122ZM139.054 17.2877C164.142 6.46562 175.726 -22.7472 164.877 -47.8762C154.041 -72.9915 124.842 -84.6168 99.7537 -73.7947C74.6656 -62.959 63.0812 -33.7462 73.9305 -8.61723C84.7662 16.4982 113.965 28.1234 139.054 17.2877Z" fill="#FDA8A7"/>
</g>
</g>
</g>
<mask id="mask3_27_404" style="mask-type:luminance" maskUnits="userSpaceOnUse" x="38" y="3" width="192" height="238">
<path d="M38.3335 3.44385H230V240.413H38.3335V3.44385Z" fill="white"/>
</mask>
<g mask="url(#mask3_27_404)">
<mask id="mask4_27_404" style="mask-type:luminance" maskUnits="userSpaceOnUse" x="38" y="4" width="191" height="266">
<path d="M38.0068 34.2627L178.667 4.57349L228.326 239.841L87.6659 269.531L38.0068 34.2627Z" fill="white"/>
</mask>
<g mask="url(#mask4_27_404)">
<mask id="mask5_27_404" style="mask-type:luminance" maskUnits="userSpaceOnUse" x="17" y="-125" width="363" height="395">
<path d="M17.5198 -62.8092L309.049 -124.352L379.222 208.097L87.6931 269.64L17.5198 -62.8092Z" fill="white"/>
</mask>
<g mask="url(#mask5_27_404)">
<path d="M195.873 60.835C150.175 33.3918 94.6084 22.3111 38.3881 34.1677L75.9454 212.126C132.166 200.256 187.746 211.337 233.444 238.78C264.154 195.206 310.505 162.617 366.726 150.747L329.168 -27.1982C272.948 -15.3415 226.583 17.2608 195.873 60.835ZM183.771 3.48479C210.507 -2.16447 227.645 -28.505 221.996 -55.2811C216.347 -82.0572 190.02 -99.2228 163.284 -93.5872C136.549 -87.9379 119.411 -61.5974 125.06 -34.8213C130.723 -8.04514 157.036 9.12043 183.771 3.48479Z" fill="#FA736D"/>
</g>
</g>
</g>
<mask id="mask6_27_404" style="mask-type:luminance" maskUnits="userSpaceOnUse" x="83" y="0" width="145" height="241">
<path d="M83.6362 0H227.087V240.454H83.6362V0Z" fill="white"/>
</mask>
<g mask="url(#mask6_27_404)">
<path d="M232.314 58.6025C193.259 22.3111 141.177 -0.0136962 83.7179 -0.0136962V181.865C141.177 181.865 193.259 204.19 232.314 240.481C271.355 204.19 323.451 181.865 380.91 181.865V-0.0136962C323.451 -0.0136962 271.355 22.3111 232.314 58.6025ZM232.314 -0.0136962C259.634 -0.0136962 281.837 -22.2432 281.837 -49.6047C281.837 -76.9797 259.634 -99.2092 232.314 -99.2092C204.993 -99.2092 182.777 -76.9797 182.777 -49.6047C182.777 -22.2432 204.993 -0.0136962 232.314 -0.0136962Z" fill="#F83E35"/>
</g>
</svg>
